<?xml version="1.0" encoding="utf-8"?>
<!-- Generator: Adobe Illustrator 26.0.1, SVG Export Plug-In . SVG Version: 6.00 Build 0)  -->
<svg version="1.1" id="Layer_1" xmlns="http://www.w3.org/2000/svg" xmlns:xlink="http://www.w3.org/1999/xlink" x="0px" y="0px"
	 viewBox="0 0 960 960" style="enable-background:new 0 0 960 960;" xml:space="preserve">
<style type="text/css">
	.st0{fill:#010202;}
	.st1{fill:#FFFFFF;}
	.st2{fill:url(#SVGID_1_);}
	.st3{fill:url(#SVGID_00000148651734989239047430000001133279003057422237_);}
	.st4{fill:url(#SVGID_00000061451963090341316690000006977547570269647233_);}
	.st5{fill:#E20E17;}
	.st6{fill-rule:evenodd;clip-rule:evenodd;fill:#E20E17;}
	.st7{fill-rule:evenodd;clip-rule:evenodd;fill:url(#SVGID_00000067956944107286102180000016943430015965749633_);}
	.st8{fill:#1E1E1C;}
	.st9{fill:url(#SVGID_00000024687841044167425470000009477441484076217737_);}
	.st10{fill:url(#SVGID_00000055688906116676241960000015555901988168634499_);}
	.st11{fill:#B08F31;}
	.st12{fill-rule:evenodd;clip-rule:evenodd;fill:#1E1E1C;}
	.st13{fill-rule:evenodd;clip-rule:evenodd;fill:#B08F31;}
</style>
<rect class="st0" width="960" height="960"/>
<g>
	<g>
		<g>
			<path class="st1" d="M256.06,518.62v-27.5h4.55v27.5c0,0.73,0.25,1.34,0.74,1.83c0.49,0.49,1.1,0.74,1.83,0.74h16.47
				c0.69,0,1.29-0.25,1.81-0.74c0.51-0.5,0.77-1.1,0.77-1.83v-27.5h4.5v27.5c0,1.98-0.69,3.66-2.08,5.05
				c-1.39,1.39-3.05,2.08-5,2.08h-16.47c-1.95,0-3.62-0.69-5.02-2.08C256.76,522.28,256.06,520.59,256.06,518.62z"/>
			<path class="st1" d="M297.07,497.94v27.8h-4.55v-34.48h4.55l21.62,23.3v-23.3h4.5v34.48h-4.5v-4.55L297.07,497.94z"/>
			<path class="st1" d="M333.73,525.74h-4.55v-34.48h4.55V525.74z"/>
			<path class="st1" d="M339.32,518.62v-20.38c0-1.98,0.69-3.66,2.08-5.05c1.39-1.39,3.07-2.08,5.05-2.08h16.47
				c1.95,0,3.61,0.69,5,2.08c1.39,1.38,2.08,3.07,2.08,5.05v20.38c0,1.16-0.26,2.24-0.77,3.24c-0.51,1.01-1.21,1.84-2.1,2.5
				l1.93,3.66h-5.14l-2.42-4.55v2.28h-15.04c-1.98,0-3.66-0.69-5.05-2.08C340.01,522.28,339.32,520.59,339.32,518.62z
				 M362.91,521.19c0.69,0,1.29-0.25,1.81-0.74c0.51-0.5,0.77-1.1,0.77-1.83v-20.38c0-0.73-0.26-1.34-0.77-1.83
				c-0.51-0.49-1.11-0.74-1.81-0.74h-16.47c-0.73,0-1.34,0.25-1.83,0.74c-0.49,0.5-0.74,1.11-0.74,1.83v20.38
				c0,0.73,0.25,1.34,0.74,1.83c0.49,0.49,1.1,0.74,1.83,0.74H362.91z"/>
			<path class="st1" d="M375.48,518.62v-27.5h4.55v27.5c0,0.73,0.25,1.34,0.74,1.83c0.49,0.49,1.1,0.74,1.83,0.74h16.47
				c0.69,0,1.29-0.25,1.81-0.74c0.51-0.5,0.77-1.1,0.77-1.83v-27.5h4.5v27.5c0,1.98-0.69,3.66-2.08,5.05
				c-1.39,1.39-3.05,2.08-5,2.08H382.6c-1.95,0-3.62-0.69-5.02-2.08C376.18,522.28,375.48,520.59,375.48,518.62z"/>
			<path class="st1" d="M439.54,521.19v4.55h-27.6v-34.48h1.34v-0.15h26.27v4.55h-23.05v10.49h17.91v4.55h-17.91v10.49H439.54z"/>
			<path class="st1" d="M458.93,491.11h23.6c1.95,0,3.61,0.69,5,2.08c1.39,1.38,2.08,3.07,2.08,5.05v13.6
				c0,1.95-0.69,3.62-2.08,5.02c-1.38,1.4-3.05,2.1-5,2.1h-19.05v6.78h-4.55V491.11z M482.53,514.41c0.69,0,1.29-0.26,1.81-0.77
				c0.51-0.51,0.77-1.11,0.77-1.81v-13.6c0-0.73-0.26-1.34-0.77-1.83c-0.51-0.49-1.11-0.74-1.81-0.74h-19.05v18.75H482.53z"/>
			<path class="st1" d="M522.26,521.19v4.55h-27.6v-34.48h4.55v29.93H522.26z"/>
			<path class="st1" d="M558.27,525.74h-4.85l-2.82-6.78h-19l-2.77,6.78h-4.85l14.15-34.63h5.99L558.27,525.74z M541.1,495.66
				l-7.67,18.75h15.34L541.1,495.66z"/>
			<path class="st1" d="M567.67,495.66h-13.06v-4.55h30.67v4.55h-13.06v30.08h-4.55V495.66z"/>
			<path class="st1" d="M594.33,525.74h-4.55v-34.48h4.55V525.74z"/>
			<path class="st1" d="M604.82,497.94v27.8h-4.55v-34.48h4.55l21.62,23.3v-23.3h4.5v34.48h-4.5v-4.55L604.82,497.94z"/>
			<path class="st1" d="M636.73,518.62v-27.5h4.55v27.5c0,0.73,0.25,1.34,0.74,1.83c0.5,0.49,1.1,0.74,1.83,0.74h16.47
				c0.69,0,1.29-0.25,1.81-0.74c0.51-0.5,0.77-1.1,0.77-1.83v-27.5h4.5v27.5c0,1.98-0.69,3.66-2.08,5.05
				c-1.38,1.39-3.05,2.08-5,2.08h-16.47c-1.95,0-3.62-0.69-5.02-2.08C637.43,522.28,636.73,520.59,636.73,518.62z"/>
			<path class="st1" d="M705.19,491.21h8.01v34.53h-4.55v-31.17l-12.66,31.17h-5.94l-12.32-30.13v30.13h-4.55v-34.53h7.67
				l12.17,29.98L705.19,491.21z"/>
		</g>
	</g>
	<g>
		<g>
			<path class="st1" d="M420.97,565.85c0.53,0,0.96-0.19,1.28-0.56c0.32-0.37,0.45-0.81,0.4-1.3c-0.05-0.49-0.32-0.87-0.79-1.12
				c-1.71-0.98-4.27-2.46-7.69-4.44c-3.42-1.98-5.98-3.45-7.69-4.44c-0.51-0.3-0.77-0.75-0.77-1.35v-1.67
				c0-1.26,0.45-2.34,1.35-3.25c0.9-0.91,1.99-1.36,3.27-1.36h13.77v2.95h-13.77c-0.38,0-0.73,0.12-1.03,0.35s-0.5,0.53-0.61,0.9
				c-0.09,0.34-0.06,0.67,0.08,0.99c0.14,0.32,0.36,0.57,0.66,0.74c0.15,0.09,0.9,0.49,2.26,1.22c1.36,0.73,2.75,1.49,4.18,2.29
				s2.92,1.66,4.45,2.56c1.54,0.91,2.8,1.74,3.78,2.5s1.47,1.31,1.47,1.65v1.67c0,1.26-0.45,2.34-1.34,3.25
				c-0.9,0.91-1.99,1.36-3.27,1.36h-13.77v-2.95H420.97z"/>
			<path class="st1" d="M446.11,565.85v2.95h-17.87v-22.33h0.87v-0.1h17.01v2.95h-14.93v6.79h11.6v2.95h-11.6v6.79H446.11z"/>
			<path class="st1" d="M448.74,546.38h15.28c1.26,0,2.34,0.45,3.24,1.35c0.9,0.9,1.35,1.99,1.35,3.27v8.81
				c0,1.24-0.43,2.3-1.28,3.19c-0.85,0.89-1.9,1.36-3.14,1.42l4.42,4.39h-4l-4.42-4.39h-8.49v4.39h-2.95V546.38z M451.69,549.32
				v12.14h12.33c0.45,0,0.84-0.17,1.17-0.5s0.5-0.72,0.5-1.17v-8.81c0-0.47-0.17-0.87-0.5-1.19s-0.72-0.48-1.17-0.48H451.69z"/>
			<path class="st1" d="M470.84,546.38h3.14l7.94,19.48l7.98-19.48h3.14l-9.16,22.42H480L470.84,546.38z"/>
			<path class="st1" d="M498.61,568.8h-2.95v-22.33h2.95V568.8z"/>
			<path class="st1" d="M502.23,564.19v-13.2c0-1.28,0.45-2.37,1.35-3.27c0.9-0.9,1.99-1.35,3.27-1.35h15.25v2.95h-15.25
				c-0.47,0-0.87,0.16-1.19,0.48s-0.48,0.72-0.48,1.19v13.2c0,0.47,0.16,0.86,0.48,1.18s0.71,0.48,1.19,0.48h15.25v2.95h-15.25
				c-1.28,0-2.37-0.45-3.27-1.35C502.68,566.56,502.23,565.47,502.23,564.19z"/>
			<path class="st1" d="M542.5,565.85v2.95h-17.87v-22.33h0.87v-0.1h17.01v2.95h-14.93v6.79h11.6v2.95h-11.6v6.79H542.5z"/>
			<path class="st1" d="M559.18,565.85c0.53,0,0.96-0.19,1.28-0.56c0.32-0.37,0.45-0.81,0.4-1.3s-0.31-0.87-0.79-1.12
				c-1.71-0.98-4.27-2.46-7.69-4.44s-5.98-3.45-7.69-4.44c-0.51-0.3-0.77-0.75-0.77-1.35v-1.67c0-1.26,0.45-2.34,1.35-3.25
				c0.9-0.91,1.99-1.36,3.27-1.36h13.77v2.95h-13.77c-0.38,0-0.73,0.12-1.03,0.35s-0.5,0.53-0.61,0.9
				c-0.09,0.34-0.06,0.67,0.08,0.99c0.14,0.32,0.36,0.57,0.66,0.74c0.15,0.09,0.9,0.49,2.26,1.22s2.75,1.49,4.18,2.29
				c1.43,0.8,2.92,1.66,4.45,2.56c1.54,0.91,2.8,1.74,3.78,2.5s1.47,1.31,1.47,1.65v1.67c0,1.26-0.45,2.34-1.35,3.25
				c-0.9,0.91-1.99,1.36-3.27,1.36h-13.77v-2.95H559.18z"/>
		</g>
	</g>
	<linearGradient id="SVGID_1_" gradientUnits="userSpaceOnUse" x1="292.1328" y1="339.218" x2="677.3819" y2="339.218">
		<stop  offset="0" style="stop-color:#B2B2B2"/>
		<stop  offset="0.1172" style="stop-color:#B6B6B6"/>
		<stop  offset="0.2575" style="stop-color:#C4C4C4"/>
		<stop  offset="0.4091" style="stop-color:#DBDADA"/>
		<stop  offset="0.5" style="stop-color:#ECECEC"/>
		<stop  offset="1" style="stop-color:#B4B4B4"/>
	</linearGradient>
	<path class="st2" d="M292.13,393.78c0,0,6.6-3.88,11.65-5.83l1.55-53.59c0,0,82.33-37.67,180.97-36.51c0,0,99.42,0.78,175.54,34.95
		l2.72,34.56c0,0,4.27-1.17,12.82-0.39l-3.5-43.5c0,0-77.28-38.45-189.13-38.84c0,0-100.58-0.78-192.62,41.55V393.78z"/>
	
		<linearGradient id="SVGID_00000031905338191556201840000009673431490033565614_" gradientUnits="userSpaceOnUse" x1="352.541" y1="622.5901" x2="616.5829" y2="622.5901">
		<stop  offset="0" style="stop-color:#B2B2B2"/>
		<stop  offset="0.1172" style="stop-color:#B6B6B6"/>
		<stop  offset="0.2575" style="stop-color:#C4C4C4"/>
		<stop  offset="0.4091" style="stop-color:#DBDADA"/>
		<stop  offset="0.5" style="stop-color:#ECECEC"/>
		<stop  offset="1" style="stop-color:#B4B4B4"/>
	</linearGradient>
	<path style="fill:url(#SVGID_00000031905338191556201840000009673431490033565614_);" d="M352.54,573.99h16.63
		c0,0,47.82,62.37,113.31,87.32c0,0,70.17-25.47,119.03-91.48h15.07c0,0-40.02,69.65-132.02,105.51
		C484.56,675.35,413.87,655.08,352.54,573.99z"/>
	
		<linearGradient id="SVGID_00000030449553846232823600000006128345025954906251_" gradientUnits="userSpaceOnUse" x1="472.7015" y1="618.0973" x2="496.4224" y2="618.0973">
		<stop  offset="0" style="stop-color:#B2B2B2"/>
		<stop  offset="0.1172" style="stop-color:#B6B6B6"/>
		<stop  offset="0.2575" style="stop-color:#C4C4C4"/>
		<stop  offset="0.4091" style="stop-color:#DBDADA"/>
		<stop  offset="0.5" style="stop-color:#ECECEC"/>
		<stop  offset="1" style="stop-color:#B4B4B4"/>
	</linearGradient>
	<polygon style="fill:url(#SVGID_00000030449553846232823600000006128345025954906251_);" points="484.56,606.82 488.23,614.24 
		496.42,615.43 490.49,621.21 491.89,629.38 484.56,625.52 477.23,629.38 478.63,621.21 472.7,615.43 480.9,614.24 	"/>
	<g>
		<polygon class="st5" points="358.15,560.05 362.81,551.31 267.18,551.31 260.77,560.05 		"/>
		<polygon class="st5" points="625.34,560.05 630.59,551.31 708.74,551.31 704.66,560.05 		"/>
	</g>
	<g>
		<path class="st1" d="M462.46,596.71v1.19h-7.23v-9.03h1.19v7.83H462.46z"/>
		<path class="st1" d="M464.33,590.7c0-0.52,0.18-0.96,0.54-1.32c0.36-0.36,0.8-0.54,1.32-0.54h4.31c0.51,0,0.95,0.18,1.31,0.54
			c0.36,0.36,0.54,0.8,0.54,1.32v5.33c0,0.52-0.18,0.96-0.54,1.32c-0.36,0.36-0.8,0.54-1.31,0.54h-4.31c-0.52,0-0.96-0.18-1.32-0.54
			c-0.36-0.36-0.54-0.8-0.54-1.32V590.7z M470.51,596.71c0.18,0,0.34-0.06,0.47-0.19s0.2-0.29,0.2-0.48v-5.33
			c0-0.19-0.07-0.35-0.2-0.48c-0.13-0.13-0.29-0.19-0.47-0.19h-4.31c-0.19,0-0.35,0.07-0.48,0.19c-0.13,0.13-0.19,0.29-0.19,0.48
			v5.33c0,0.19,0.06,0.35,0.19,0.48c0.13,0.13,0.29,0.19,0.48,0.19H470.51z"/>
		<path class="st1" d="M475.8,590.62v7.28h-1.19v-9.03h1.19l5.66,6.1v-6.1h1.18v9.03h-1.18v-1.19L475.8,590.62z"/>
		<path class="st1" d="M484.98,588.83h6.18c0.51,0,0.95,0.18,1.31,0.54c0.36,0.36,0.54,0.8,0.54,1.32v5.33
			c0,0.52-0.18,0.96-0.54,1.32c-0.36,0.36-0.8,0.54-1.31,0.54h-6.18V588.83z M486.18,590.02v6.68h4.99c0.18,0,0.34-0.06,0.47-0.19
			s0.2-0.29,0.2-0.48v-5.33c0-0.19-0.07-0.35-0.2-0.48c-0.13-0.13-0.29-0.19-0.47-0.19H486.18z"/>
		<path class="st1" d="M495.18,590.7c0-0.52,0.18-0.96,0.54-1.32c0.36-0.36,0.8-0.54,1.32-0.54h4.31c0.51,0,0.95,0.18,1.31,0.54
			c0.36,0.36,0.54,0.8,0.54,1.32v5.33c0,0.52-0.18,0.96-0.54,1.32c-0.36,0.36-0.8,0.54-1.31,0.54h-4.31c-0.52,0-0.96-0.18-1.32-0.54
			c-0.36-0.36-0.54-0.8-0.54-1.32V590.7z M501.35,596.71c0.18,0,0.34-0.06,0.47-0.19s0.2-0.29,0.2-0.48v-5.33
			c0-0.19-0.07-0.35-0.2-0.48c-0.13-0.13-0.29-0.19-0.47-0.19h-4.31c-0.19,0-0.35,0.07-0.48,0.19c-0.13,0.13-0.19,0.29-0.19,0.48
			v5.33c0,0.19,0.06,0.35,0.19,0.48c0.13,0.13,0.29,0.19,0.48,0.19H501.35z"/>
		<path class="st1" d="M506.65,590.62v7.28h-1.19v-9.03h1.19l5.66,6.1v-6.1h1.18v9.03h-1.18v-1.19L506.65,590.62z"/>
	</g>
	<g>
		<path class="st6" d="M641.15,377.63c-7.24-2.38-28.33-1.54-28.33-1.54V386l-7.83,0.43c-9.41-16.85-26.78-28.28-34.39-30.74
			c-23.58-7.63-59.84-8.28-85.59-8.28c-25.76,0-62.01,0.65-85.59,8.28c-7.62,2.46-25.01,13.9-34.41,30.77l-8.3-0.45v-9.92
			c0,0-21.08-0.83-28.33,1.54c-7.24,2.38-5.23,11.46-5.23,11.46l39.54,2.03c-0.26,0.6-0.51,1.2-0.75,1.8L335,399.46
			c-6.6,11.68-7.73,47.8-1.01,58.37c6.09,9.58,54.59-11.62,88.31,20.83h16.86h91.68h16.86c33.71-32.46,82.21-11.25,88.31-20.83
			c6.73-10.57,5.6-46.69-1.01-58.37l-26.92-6.54c-0.24-0.62-0.5-1.22-0.76-1.83l39.06-2C646.37,389.09,648.39,380,641.15,377.63z
			 M603.54,414.81c-6.67,2.01-13.33,11.07-13.33,11.07s-11.45-2.77-14.97-1.64C575.23,424.24,582.78,413.8,603.54,414.81z
			 M377.7,384.37c4.53-7.62,12.94-18.75,25.42-23.64c16.2-6.36,59.68-8.62,81.64-8.12c21.96-0.5,65.44,1.76,81.64,8.12
			c12.47,4.89,20.88,16.03,25.42,23.64c1.03,1.74,1.21,3.66,0.5,5.55c-0.71,1.89-2.1,3.23-4.01,3.86
			c-14.27,4.71-27.56,17.64-27.56,17.64s8.08-15.3,20.56-21.17c-25.6-2.55-64.73-3.42-88.33-3.71c-3.27-0.04-6.02,2.33-6.46,5.57
			l-1.74,12.77l-1.74-12.77c-0.44-3.24-3.19-5.61-6.46-5.57c-23.6,0.29-62.73,1.16-88.33,3.71c12.47,5.87,20.56,21.17,20.56,21.17
			s-13.29-12.93-27.56-17.64c-1.92-0.63-3.31-1.97-4.01-3.86C376.5,388.02,376.67,386.1,377.7,384.37z M394.77,424.24
			c-3.52-1.13-14.97,1.64-14.97,1.64s-6.67-9.06-13.33-11.07C387.22,413.8,394.77,424.24,394.77,424.24z M339.77,406.06
			c5.79,11.2,20.78,7.87,33.86,20.83C352.08,433.73,332.54,429.68,339.77,406.06z M547.7,472.62h-10.48h-6.37h-91.68h-6.37H422.3
			c-16.91-16.28-37.7-25.79-54.91-32.31c17.05,2.59,37.58,7.37,54.91,24.06h16.86c0,0-16.1-13.59-25.16-31.2
			c-8.8-17.11-9.04-20.68,71-20.87c80.04,0.19,79.8,3.76,71,20.87c-9.06,17.61-25.16,31.2-25.16,31.2h16.86
			c17.33-16.69,37.86-21.47,54.91-24.06C585.4,446.83,564.61,456.35,547.7,472.62z M630.23,406.06
			c7.23,23.63-12.31,27.68-33.86,20.83C609.45,413.93,624.44,417.25,630.23,406.06z"/>
		
			<linearGradient id="SVGID_00000152236888238889171750000011834778106496081806_" gradientUnits="userSpaceOnUse" x1="424.9915" y1="437.9696" x2="545.0102" y2="437.9696">
			<stop  offset="0" style="stop-color:#B2B2B2"/>
			<stop  offset="0.2343" style="stop-color:#B6B6B6"/>
			<stop  offset="0.5151" style="stop-color:#C4C4C4"/>
			<stop  offset="0.8183" style="stop-color:#DBDADA"/>
			<stop  offset="1" style="stop-color:#ECECEC"/>
		</linearGradient>
		<path style="fill-rule:evenodd;clip-rule:evenodd;fill:url(#SVGID_00000152236888238889171750000011834778106496081806_);" d="
			M425.35,427.94c1.48-3.3,7.83-5.04,23.86-5.87c1.73-0.09,3.23,1.21,3.38,2.94l0.64,7.44l1.06,12.27l1.06-12.27l0.68-7.81
			c0.14-1.64,1.48-2.9,3.12-2.94c0.09,0,0.19-0.01,0.28-0.01c1.72-0.05,3.17,1.27,3.3,2.99l0.74,10.08
			c0.35,4.86,0.71,9.71,1.06,14.57c0.35-4.86,0.71-9.71,1.06-14.57l0.75-10.27c0.12-1.67,1.49-2.97,3.17-2.99c0.05,0,0.1,0,0.15,0
			c1.72-0.02,3.15,1.3,3.25,3.02l0.79,12.55c0.35,5.63,0.71,11.25,1.06,16.88c0.35-5.63,0.71-11.25,1.06-16.88l0.8-12.64
			c0.11-1.69,1.5-3.01,3.2-3.02c0.02,0,0.04,0,0.06,0c1.72-0.01,3.14,1.33,3.23,3.04l0.83,14.92l1.06,19.18l1.06-19.18l0.83-14.92
			c0.09-1.71,1.51-3.05,3.23-3.04c0.02,0,0.04,0,0.06,0c1.7,0.01,3.09,1.32,3.2,3.02l0.8,12.64c0.35,5.63,0.71,11.25,1.06,16.88
			c0.35-5.63,0.71-11.25,1.06-16.88l0.79-12.55c0.11-1.71,1.54-3.04,3.26-3.02c0.05,0,0.1,0,0.15,0c1.68,0.02,3.05,1.31,3.17,2.99
			l0.75,10.27c0.35,4.86,0.71,9.71,1.06,14.57c0.35-4.86,0.71-9.71,1.06-14.57l0.74-10.08c0.12-1.72,1.58-3.03,3.3-2.99
			c0.09,0,0.19,0.01,0.28,0.01c1.64,0.04,2.98,1.3,3.12,2.94l0.68,7.81l1.06,12.27l1.06-12.27l0.64-7.44
			c0.15-1.73,1.64-3.03,3.38-2.94c16.03,0.84,22.38,2.57,23.86,5.87c2.44-8.43-6.62-10.41-59.65-10.54
			C431.96,417.52,422.91,419.5,425.35,427.94z"/>
	</g>
</g>
</svg>
